<svg xmlns="http://www.w3.org/2000/svg" xmlns:xlink="http://www.w3.org/1999/xlink" width="500" zoomAndPan="magnify" viewBox="0 0 375 374.999991" height="500" preserveAspectRatio="xMidYMid meet" version="1.0"><rect x="-37.5" width="450" fill="#ffffff" y="-37.499999" height="449.999989" fill-opacity="1"/><path fill="#d4a574" d="M 178.316406 47.507812 C 186.175781 46.53125 191.53125 52.269531 196.832031 57.292969 C 219.617188 78.898438 241.644531 102.722656 259.601562 128.578125 C 269.140625 142.546875 277.976562 156.984375 286.070312 171.835938 C 287.777344 174.921875 293.316406 183.375 293.046875 186.570312 C 293.007812 187.054688 292.820312 187.527344 292.398438 187.800781 C 290.628906 188.941406 280.058594 182.691406 278.019531 181.59375 C 260.101562 172.085938 242.496094 161.992188 225.238281 151.328125 L 204.683594 138.445312 C 198.292969 134.40625 189.125 127.828125 181.664062 126.769531 C 176.386719 126.054688 171.042969 127.460938 166.800781 130.683594 C 162.367188 134.054688 159.664062 139.015625 158.96875 144.511719 C 158.449219 148.964844 159.382812 153.46875 161.628906 157.351562 C 163.542969 160.644531 167 164.199219 169.566406 167.058594 L 178.125 176.761719 C 189.121094 189.234375 200.050781 201.769531 210.914062 214.363281 C 215.449219 219.601562 221.066406 225.449219 225.207031 230.753906 C 230.695312 239.003906 228.675781 244.0625 224.914062 252.570312 C 223.683594 255.351562 222.453125 258.234375 221.183594 261.019531 C 213.359375 277.914062 204.742188 294.429688 195.363281 310.507812 C 193.625 313.507812 191.859375 316.480469 190.054688 319.441406 C 188.851562 321.421875 187.710938 323.492188 186.367188 325.378906 C 185.726562 326.277344 184.695312 327.304688 183.554688 327.417969 C 182.640625 327.527344 181.90625 326.902344 181.230469 326.386719 C 179.230469 324.707031 177.253906 322.847656 175.347656 321.050781 C 171.503906 317.414062 167.714844 313.71875 163.976562 309.972656 C 135.210938 281.390625 107.855469 248.472656 91.105469 211.230469 C 85.976562 199.832031 80.121094 183.898438 83.5 171.148438 C 84.628906 166.886719 88.285156 160.8125 90.375 156.742188 C 102.421875 133.175781 116.78125 110.863281 133.242188 90.136719 C 141.613281 79.605469 150.585938 69.566406 160.113281 60.0625 C 163.816406 56.324219 168.136719 51.832031 172.617188 49.0625 C 174.183594 48.09375 176.507812 47.71875 178.316406 47.507812 Z M 178.316406 47.507812 " fill-opacity="1" fill-rule="nonzero"/><path fill="#ffffff" d="M 109.335938 151.585938 C 110.0625 151.933594 111.179688 154.902344 111.492188 155.765625 C 116.863281 170.578125 123.992188 184.882812 133.097656 197.765625 C 133.996094 199.152344 135.382812 200.761719 135.878906 202.359375 C 136.859375 205.53125 136.839844 209.417969 137.066406 212.71875 C 137.253906 215.363281 137.503906 218 137.816406 220.632812 C 138.851562 229.183594 140.4375 237.65625 142.570312 246.003906 C 146.515625 261.695312 152.039062 276.945312 159.054688 291.527344 C 160.71875 295.035156 162.769531 298.449219 164.601562 301.878906 C 165.609375 303.765625 166.847656 305.753906 167.617188 307.75 C 166.683594 307.292969 159.949219 299.859375 158.730469 298.578125 C 149.304688 288.636719 139.394531 277.988281 131.53125 266.761719 C 128.800781 261.59375 126.53125 255.132812 124.519531 249.726562 C 112.644531 217.832031 109.132812 185.316406 109.335938 151.585938 Z M 109.335938 151.585938 " fill-opacity="1" fill-rule="nonzero"/><path fill="#ffffff" d="M 141.171875 208.773438 C 141.457031 208.921875 141.589844 208.996094 141.800781 209.257812 C 146.277344 214.800781 151.113281 220.113281 156.070312 225.234375 C 158.957031 228.21875 162.597656 231.152344 165.707031 233.917969 C 167.503906 235.515625 171.007812 238.136719 172.328125 239.898438 C 174.382812 242.652344 176.222656 248.183594 177.410156 251.445312 C 185.453125 273.535156 185.699219 295.992188 182.769531 319.039062 L 182.285156 321.542969 C 178.382812 315.808594 174.621094 310.808594 171.046875 304.660156 C 154.355469 275.933594 143.085938 241.992188 141.171875 208.773438 Z M 141.171875 208.773438 " fill-opacity="1" fill-rule="nonzero"/><path fill="#ffffff" d="M 223.769531 239.089844 L 224.113281 239.109375 C 224.203125 239.3125 224.234375 239.351562 224.261719 239.605469 C 224.988281 246.324219 204.78125 284.691406 200.59375 292.417969 C 197.972656 297.253906 195.144531 301.992188 192.414062 306.769531 C 190.71875 309.730469 189.117188 312.835938 187.210938 315.667969 C 187.84375 311.707031 188.269531 307.710938 188.492188 303.703125 C 188.667969 302.035156 188.660156 299.578125 188.703125 297.84375 C 189.070312 283.5 187.320312 268.84375 183.199219 255.089844 C 182 251.097656 180.089844 246.828125 178.402344 243.058594 C 189.601562 249.441406 196.203125 247.265625 207.609375 243.78125 C 212.960938 242.101562 218.347656 240.535156 223.769531 239.089844 Z M 223.769531 239.089844 " fill-opacity="1" fill-rule="nonzero"/><path fill="#ffffff" d="M 105.132812 138.878906 C 105.445312 139.28125 105.398438 140.003906 105.378906 140.535156 C 105.011719 150.152344 104.75 159.816406 105.117188 169.445312 C 105.832031 191.753906 109.246094 213.890625 115.292969 235.375 C 117.175781 241.855469 119.683594 248.515625 121.890625 254.921875 C 118.953125 250.984375 116.71875 247.75 114.050781 243.644531 C 103.28125 227.488281 92.3125 208.707031 88.167969 189.558594 C 87.148438 184.859375 86.3125 179.570312 87.113281 174.804688 C 88.21875 168.25 100.871094 145.488281 105.132812 138.878906 Z M 105.132812 138.878906 " fill-opacity="1" fill-rule="nonzero"/></svg>